<mxfile host="app.diagrams.net" modified="2023-12-13T23:52:32.573Z" agent="Mozilla/5.0 (Windows NT 10.0; Win64; x64) AppleWebKit/537.36 (KHTML, like Gecko) Chrome/120.0.0.0 Safari/537.36" etag="Gay7CyX7IMVrWDN3RxxA" version="22.1.8" type="github">
  <diagram name="Página-1" id="GaFOK_IkjG5g9wT0JQfr">
    <mxGraphModel dx="1834" dy="1590" grid="0" gridSize="10" guides="1" tooltips="1" connect="1" arrows="1" fold="1" page="0" pageScale="1" pageWidth="827" pageHeight="1169" math="0" shadow="0">
      <root>
        <mxCell id="0" />
        <mxCell id="1" parent="0" />
        <mxCell id="5MAYRFb68hhgtkij5-67-50" value="Zona de Disponibilidade" style="fillColor=none;strokeColor=#147EBA;dashed=1;verticalAlign=top;fontStyle=0;fontColor=#147EBA;whiteSpace=wrap;html=1;fontSize=16;" parent="1" vertex="1">
          <mxGeometry x="228" y="-78" width="278" height="525" as="geometry" />
        </mxCell>
        <mxCell id="5MAYRFb68hhgtkij5-67-1" value="Nuvem AWS" style="points=[[0,0],[0.25,0],[0.5,0],[0.75,0],[1,0],[1,0.25],[1,0.5],[1,0.75],[1,1],[0.75,1],[0.5,1],[0.25,1],[0,1],[0,0.75],[0,0.5],[0,0.25]];outlineConnect=0;gradientColor=none;html=1;whiteSpace=wrap;fontSize=12;fontStyle=0;container=0;pointerEvents=0;collapsible=0;recursiveResize=0;shape=mxgraph.aws4.group;grIcon=mxgraph.aws4.group_aws_cloud_alt;strokeColor=#232F3E;fillColor=none;verticalAlign=top;align=left;spacingLeft=30;fontColor=#232F3E;dashed=0;" parent="1" vertex="1">
          <mxGeometry x="-268" y="-137" width="833" height="637" as="geometry" />
        </mxCell>
        <mxCell id="5MAYRFb68hhgtkij5-67-2" value="Região" style="points=[[0,0],[0.25,0],[0.5,0],[0.75,0],[1,0],[1,0.25],[1,0.5],[1,0.75],[1,1],[0.75,1],[0.5,1],[0.25,1],[0,1],[0,0.75],[0,0.5],[0,0.25]];outlineConnect=0;gradientColor=none;html=1;whiteSpace=wrap;fontSize=12;fontStyle=0;container=0;pointerEvents=0;collapsible=0;recursiveResize=0;shape=mxgraph.aws4.group;grIcon=mxgraph.aws4.group_region;strokeColor=#00A4A6;fillColor=none;verticalAlign=top;align=left;spacingLeft=30;fontColor=#147EBA;dashed=1;" parent="1" vertex="1">
          <mxGeometry x="-241" y="-83" width="777" height="561" as="geometry" />
        </mxCell>
        <mxCell id="5MAYRFb68hhgtkij5-67-3" value="VPC" style="points=[[0,0],[0.25,0],[0.5,0],[0.75,0],[1,0],[1,0.25],[1,0.5],[1,0.75],[1,1],[0.75,1],[0.5,1],[0.25,1],[0,1],[0,0.75],[0,0.5],[0,0.25]];outlineConnect=0;gradientColor=none;html=1;whiteSpace=wrap;fontSize=12;fontStyle=0;container=0;pointerEvents=0;collapsible=0;recursiveResize=0;shape=mxgraph.aws4.group;grIcon=mxgraph.aws4.group_vpc2;strokeColor=#8C4FFF;fillColor=none;verticalAlign=top;align=left;spacingLeft=30;fontColor=#AAB7B8;dashed=0;" parent="1" vertex="1">
          <mxGeometry x="-208" y="-35" width="714" height="495" as="geometry" />
        </mxCell>
        <mxCell id="5MAYRFb68hhgtkij5-67-51" value="Sub-rede pública 2" style="points=[[0,0],[0.25,0],[0.5,0],[0.75,0],[1,0],[1,0.25],[1,0.5],[1,0.75],[1,1],[0.75,1],[0.5,1],[0.25,1],[0,1],[0,0.75],[0,0.5],[0,0.25]];outlineConnect=0;gradientColor=none;html=1;whiteSpace=wrap;fontSize=12;fontStyle=0;container=1;pointerEvents=0;collapsible=0;recursiveResize=0;shape=mxgraph.aws4.group;grIcon=mxgraph.aws4.group_security_group;grStroke=0;strokeColor=#7AA116;fillColor=#F2F6E8;verticalAlign=top;align=left;spacingLeft=30;fontColor=#248814;dashed=0;" parent="1" vertex="1">
          <mxGeometry x="251" y="-24" width="238" height="135" as="geometry" />
        </mxCell>
        <mxCell id="5MAYRFb68hhgtkij5-67-52" value="Sub-rede privada 3" style="points=[[0,0],[0.25,0],[0.5,0],[0.75,0],[1,0],[1,0.25],[1,0.5],[1,0.75],[1,1],[0.75,1],[0.5,1],[0.25,1],[0,1],[0,0.75],[0,0.5],[0,0.25]];outlineConnect=0;gradientColor=none;html=1;whiteSpace=wrap;fontSize=12;fontStyle=0;container=1;pointerEvents=0;collapsible=0;recursiveResize=0;shape=mxgraph.aws4.group;grIcon=mxgraph.aws4.group_security_group;grStroke=0;strokeColor=#00A4A6;fillColor=#E6F6F7;verticalAlign=top;align=left;spacingLeft=30;fontColor=#147EBA;dashed=0;" parent="1" vertex="1">
          <mxGeometry x="241" y="123" width="250" height="308" as="geometry" />
        </mxCell>
        <mxCell id="5MAYRFb68hhgtkij5-67-53" value="Grupo de Segurança" style="fillColor=none;strokeColor=#DD3522;verticalAlign=top;fontStyle=0;fontColor=#DD3522;whiteSpace=wrap;html=1;fontSize=16;" parent="5MAYRFb68hhgtkij5-67-52" vertex="1">
          <mxGeometry x="3.5" y="30" width="244.5" height="194" as="geometry" />
        </mxCell>
        <mxCell id="5MAYRFb68hhgtkij5-67-61" value="10.0.3.0/24" style="text;strokeColor=none;fillColor=none;html=1;align=center;verticalAlign=middle;whiteSpace=wrap;rounded=0;fontSize=16;" parent="5MAYRFb68hhgtkij5-67-52" vertex="1">
          <mxGeometry x="159" y="9" width="39" height="10" as="geometry" />
        </mxCell>
        <mxCell id="KGhCo7YPbiiK506QoQOj-2" value="" style="sketch=0;pointerEvents=1;shadow=0;dashed=0;html=1;strokeColor=none;fillColor=#DF8C42;labelPosition=center;verticalLabelPosition=bottom;verticalAlign=top;align=center;outlineConnect=0;shape=mxgraph.veeam2.aws_s3;" vertex="1" parent="5MAYRFb68hhgtkij5-67-52">
          <mxGeometry x="101" y="71" width="66" height="69" as="geometry" />
        </mxCell>
        <mxCell id="KGhCo7YPbiiK506QoQOj-3" value="S3" style="text;strokeColor=none;fillColor=none;html=1;align=center;verticalAlign=middle;whiteSpace=wrap;rounded=0;fontSize=16;" vertex="1" parent="5MAYRFb68hhgtkij5-67-52">
          <mxGeometry x="90" y="151" width="104" height="30" as="geometry" />
        </mxCell>
        <mxCell id="5MAYRFb68hhgtkij5-67-59" value="10.0.2.0/24" style="text;strokeColor=none;fillColor=none;html=1;align=center;verticalAlign=middle;whiteSpace=wrap;rounded=0;fontSize=16;" parent="1" vertex="1">
          <mxGeometry x="303" y="12" width="39" height="10" as="geometry" />
        </mxCell>
        <mxCell id="5MAYRFb68hhgtkij5-67-62" value="Grupo de Segurança" style="fillColor=none;strokeColor=#DD3522;verticalAlign=top;fontStyle=0;fontColor=#DD3522;whiteSpace=wrap;html=1;fontSize=16;" parent="1" vertex="1">
          <mxGeometry x="60.99" y="-8" width="163.75" height="151" as="geometry" />
        </mxCell>
        <mxCell id="5MAYRFb68hhgtkij5-67-63" value="" style="sketch=0;points=[[0,0,0],[0.25,0,0],[0.5,0,0],[0.75,0,0],[1,0,0],[0,1,0],[0.25,1,0],[0.5,1,0],[0.75,1,0],[1,1,0],[0,0.25,0],[0,0.5,0],[0,0.75,0],[1,0.25,0],[1,0.5,0],[1,0.75,0]];outlineConnect=0;fontColor=#232F3E;fillColor=#8C4FFF;strokeColor=#ffffff;dashed=0;verticalLabelPosition=bottom;verticalAlign=top;align=center;html=1;fontSize=12;fontStyle=0;aspect=fixed;shape=mxgraph.aws4.resourceIcon;resIcon=mxgraph.aws4.elastic_load_balancing;" parent="1" vertex="1">
          <mxGeometry x="123.5" y="31" width="50" height="50" as="geometry" />
        </mxCell>
        <mxCell id="5MAYRFb68hhgtkij5-67-64" value="Load Balance" style="text;strokeColor=none;fillColor=none;html=1;align=center;verticalAlign=middle;whiteSpace=wrap;rounded=0;fontSize=16;" parent="1" vertex="1">
          <mxGeometry x="118.5" y="85" width="60" height="30" as="geometry" />
        </mxCell>
        <mxCell id="5MAYRFb68hhgtkij5-67-67" value="" style="sketch=0;outlineConnect=0;fontColor=#232F3E;gradientColor=none;fillColor=#8C4FFF;strokeColor=none;dashed=0;verticalLabelPosition=bottom;verticalAlign=top;align=center;html=1;fontSize=12;fontStyle=0;aspect=fixed;pointerEvents=1;shape=mxgraph.aws4.internet_gateway;" parent="1" vertex="1">
          <mxGeometry x="122.5" y="-63" width="49" height="49" as="geometry" />
        </mxCell>
        <mxCell id="5MAYRFb68hhgtkij5-67-68" value="Gateway de&amp;nbsp; Internet" style="text;strokeColor=none;fillColor=none;html=1;align=center;verticalAlign=middle;whiteSpace=wrap;rounded=0;fontSize=16;" parent="1" vertex="1">
          <mxGeometry x="86.25" y="-117" width="125.5" height="30" as="geometry" />
        </mxCell>
        <mxCell id="5MAYRFb68hhgtkij5-67-80" value="Zona de Disponibilidade" style="fillColor=none;strokeColor=#147EBA;dashed=1;verticalAlign=top;fontStyle=0;fontColor=#147EBA;whiteSpace=wrap;html=1;fontSize=16;" parent="1" vertex="1">
          <mxGeometry x="-225" y="-83" width="278" height="525" as="geometry" />
        </mxCell>
        <mxCell id="5MAYRFb68hhgtkij5-67-81" value="Sub-rede pública 2" style="points=[[0,0],[0.25,0],[0.5,0],[0.75,0],[1,0],[1,0.25],[1,0.5],[1,0.75],[1,1],[0.75,1],[0.5,1],[0.25,1],[0,1],[0,0.75],[0,0.5],[0,0.25]];outlineConnect=0;gradientColor=none;html=1;whiteSpace=wrap;fontSize=12;fontStyle=0;container=1;pointerEvents=0;collapsible=0;recursiveResize=0;shape=mxgraph.aws4.group;grIcon=mxgraph.aws4.group_security_group;grStroke=0;strokeColor=#7AA116;fillColor=#F2F6E8;verticalAlign=top;align=left;spacingLeft=30;fontColor=#248814;dashed=0;" parent="1" vertex="1">
          <mxGeometry x="-210" y="-17" width="255" height="123" as="geometry" />
        </mxCell>
        <mxCell id="5MAYRFb68hhgtkij5-67-82" value="Sub-rede privada 3" style="points=[[0,0],[0.25,0],[0.5,0],[0.75,0],[1,0],[1,0.25],[1,0.5],[1,0.75],[1,1],[0.75,1],[0.5,1],[0.25,1],[0,1],[0,0.75],[0,0.5],[0,0.25]];outlineConnect=0;gradientColor=none;html=1;whiteSpace=wrap;fontSize=12;fontStyle=0;container=1;pointerEvents=0;collapsible=0;recursiveResize=0;shape=mxgraph.aws4.group;grIcon=mxgraph.aws4.group_security_group;grStroke=0;strokeColor=#00A4A6;fillColor=#E6F6F7;verticalAlign=top;align=left;spacingLeft=30;fontColor=#147EBA;dashed=0;" parent="1" vertex="1">
          <mxGeometry x="-212" y="118" width="250" height="308" as="geometry" />
        </mxCell>
        <mxCell id="5MAYRFb68hhgtkij5-67-83" value="Grupo de Segurança" style="fillColor=none;strokeColor=#DD3522;verticalAlign=top;fontStyle=0;fontColor=#DD3522;whiteSpace=wrap;html=1;fontSize=16;" parent="5MAYRFb68hhgtkij5-67-82" vertex="1">
          <mxGeometry x="3.5" y="30" width="244.5" height="187" as="geometry" />
        </mxCell>
        <mxCell id="5MAYRFb68hhgtkij5-67-89" value="10.0.3.0/24" style="text;strokeColor=none;fillColor=none;html=1;align=center;verticalAlign=middle;whiteSpace=wrap;rounded=0;fontSize=16;" parent="5MAYRFb68hhgtkij5-67-82" vertex="1">
          <mxGeometry x="159" y="9" width="39" height="10" as="geometry" />
        </mxCell>
        <mxCell id="KGhCo7YPbiiK506QoQOj-1" value="" style="sketch=0;pointerEvents=1;shadow=0;dashed=0;html=1;strokeColor=none;fillColor=#DF8C42;labelPosition=center;verticalLabelPosition=bottom;verticalAlign=top;align=center;outlineConnect=0;shape=mxgraph.veeam2.aws_s3;" vertex="1" parent="5MAYRFb68hhgtkij5-67-82">
          <mxGeometry x="92" y="76" width="66" height="69" as="geometry" />
        </mxCell>
        <mxCell id="5MAYRFb68hhgtkij5-67-90" value="10.0.2.0/24" style="text;strokeColor=none;fillColor=none;html=1;align=center;verticalAlign=middle;whiteSpace=wrap;rounded=0;fontSize=16;" parent="1" vertex="1">
          <mxGeometry x="-150" y="7" width="39" height="10" as="geometry" />
        </mxCell>
        <mxCell id="5MAYRFb68hhgtkij5-67-91" value="" style="sketch=0;outlineConnect=0;fontColor=#232F3E;gradientColor=none;fillColor=#8C4FFF;strokeColor=none;dashed=0;verticalLabelPosition=bottom;verticalAlign=top;align=center;html=1;fontSize=12;fontStyle=0;aspect=fixed;pointerEvents=1;shape=mxgraph.aws4.nat_gateway;" parent="1" vertex="1">
          <mxGeometry x="-103" y="32" width="49" height="49" as="geometry" />
        </mxCell>
        <mxCell id="5MAYRFb68hhgtkij5-67-92" style="edgeStyle=none;curved=1;rounded=0;orthogonalLoop=1;jettySize=auto;html=1;exitX=1;exitY=0.25;exitDx=0;exitDy=0;exitPerimeter=0;entryX=0;entryY=1;entryDx=0;entryDy=0;fontSize=12;startSize=8;endSize=8;endArrow=none;endFill=0;" parent="1" target="5MAYRFb68hhgtkij5-67-64" edge="1">
          <mxGeometry relative="1" as="geometry">
            <mxPoint x="-63.75" y="191.25" as="sourcePoint" />
          </mxGeometry>
        </mxCell>
        <mxCell id="5MAYRFb68hhgtkij5-67-97" style="edgeStyle=none;curved=1;rounded=0;orthogonalLoop=1;jettySize=auto;html=1;exitX=1;exitY=0.25;exitDx=0;exitDy=0;entryX=1;entryY=1;entryDx=0;entryDy=0;fontSize=12;startSize=8;endSize=8;endArrow=none;endFill=0;" parent="1" target="5MAYRFb68hhgtkij5-67-64" edge="1">
          <mxGeometry relative="1" as="geometry">
            <mxPoint x="343" y="204.5" as="sourcePoint" />
          </mxGeometry>
        </mxCell>
        <mxCell id="5MAYRFb68hhgtkij5-67-100" value="Auto Scaling group" style="points=[[0,0],[0.25,0],[0.5,0],[0.75,0],[1,0],[1,0.25],[1,0.5],[1,0.75],[1,1],[0.75,1],[0.5,1],[0.25,1],[0,1],[0,0.75],[0,0.5],[0,0.25]];outlineConnect=0;gradientColor=none;html=1;whiteSpace=wrap;fontSize=12;fontStyle=0;container=1;pointerEvents=0;collapsible=0;recursiveResize=0;shape=mxgraph.aws4.groupCenter;grIcon=mxgraph.aws4.group_auto_scaling_group;grStroke=1;strokeColor=#D86613;fillColor=none;verticalAlign=top;align=center;fontColor=#D86613;dashed=1;spacingTop=25;" parent="1" vertex="1">
          <mxGeometry x="-218" y="147.5" width="711" height="216.5" as="geometry" />
        </mxCell>
        <mxCell id="5MAYRFb68hhgtkij5-67-66" value="" style="sketch=0;points=[[0,0,0],[0.25,0,0],[0.5,0,0],[0.75,0,0],[1,0,0],[0,1,0],[0.25,1,0],[0.5,1,0],[0.75,1,0],[1,1,0],[0,0.25,0],[0,0.5,0],[0,0.75,0],[1,0.25,0],[1,0.5,0],[1,0.75,0]];outlineConnect=0;fontColor=#232F3E;fillColor=#ED7100;strokeColor=#ffffff;dashed=0;verticalLabelPosition=bottom;verticalAlign=top;align=center;html=1;fontSize=12;fontStyle=0;aspect=fixed;shape=mxgraph.aws4.resourceIcon;resIcon=mxgraph.aws4.auto_scaling3;" parent="5MAYRFb68hhgtkij5-67-100" vertex="1">
          <mxGeometry x="336.5" y="54.5" width="53" height="53" as="geometry" />
        </mxCell>
        <mxCell id="5MAYRFb68hhgtkij5-67-86" value="S3" style="text;strokeColor=none;fillColor=none;html=1;align=center;verticalAlign=middle;whiteSpace=wrap;rounded=0;fontSize=16;" parent="5MAYRFb68hhgtkij5-67-100" vertex="1">
          <mxGeometry x="79" y="122.5" width="104" height="30" as="geometry" />
        </mxCell>
        <mxCell id="KGhCo7YPbiiK506QoQOj-4" value="" style="rounded=0;whiteSpace=wrap;html=1;fontStyle=1" vertex="1" parent="1">
          <mxGeometry x="-269" y="-443" width="830" height="251" as="geometry" />
        </mxCell>
        <mxCell id="KGhCo7YPbiiK506QoQOj-7" style="edgeStyle=orthogonalEdgeStyle;rounded=0;orthogonalLoop=1;jettySize=auto;html=1;" edge="1" parent="1" source="KGhCo7YPbiiK506QoQOj-5" target="KGhCo7YPbiiK506QoQOj-6">
          <mxGeometry relative="1" as="geometry" />
        </mxCell>
        <mxCell id="KGhCo7YPbiiK506QoQOj-5" value="MYSQL" style="shape=cylinder3;whiteSpace=wrap;html=1;boundedLbl=1;backgroundOutline=1;size=15;" vertex="1" parent="1">
          <mxGeometry x="-22" y="-431" width="60" height="80" as="geometry" />
        </mxCell>
        <mxCell id="KGhCo7YPbiiK506QoQOj-12" style="edgeStyle=orthogonalEdgeStyle;rounded=0;orthogonalLoop=1;jettySize=auto;html=1;" edge="1" parent="1" source="KGhCo7YPbiiK506QoQOj-6" target="5MAYRFb68hhgtkij5-67-67">
          <mxGeometry relative="1" as="geometry" />
        </mxCell>
        <mxCell id="KGhCo7YPbiiK506QoQOj-6" value="" style="image;html=1;image=img/lib/clip_art/computers/Server_Rack_128x128.png" vertex="1" parent="1">
          <mxGeometry x="92.74" y="-323" width="132" height="115" as="geometry" />
        </mxCell>
        <mxCell id="KGhCo7YPbiiK506QoQOj-9" value="SERVIDOR APACHE&lt;br&gt;&amp;nbsp;PORT 80" style="text;html=1;align=center;verticalAlign=middle;resizable=0;points=[];autosize=1;strokeColor=none;fillColor=none;" vertex="1" parent="1">
          <mxGeometry x="205" y="-317" width="132" height="41" as="geometry" />
        </mxCell>
      </root>
    </mxGraphModel>
  </diagram>
</mxfile>
